<svg id="Alien" xmlns="http://www.w3.org/2000/svg" xmlns:xlink="http://www.w3.org/1999/xlink" viewBox="0 0 1224 792"><defs><style>.cls-1{stroke:#1bead6;fill:url(#linear-gradient);}.cls-1,.cls-3{stroke-miterlimit:10;stroke-width:1.65px;}.cls-2{fill:#004f44;}.cls-3{fill:#eefffd;stroke:#d8d8d8;}.cls-4{fill:#32a59a;}</style><linearGradient id="linear-gradient" x1="230.24" y1="454.08" x2="816.46" y2="297" gradientUnits="userSpaceOnUse"><stop offset="0" stop-color="#125b51"/><stop offset="0.13" stop-color="#2c7970"/><stop offset="0.37" stop-color="#65bbb3"/><stop offset="0.42" stop-color="#66c9c0"/><stop offset="0.51" stop-color="#67dcd3"/><stop offset="0.62" stop-color="#68eadf"/><stop offset="0.75" stop-color="#69f2e7"/><stop offset="1" stop-color="#69f4e9"/></linearGradient></defs><path class="cls-1" d="M839,411.84c0,146.47-112.06,164.89-319.1,164.89-206,0-291.35-18.42-291.35-164.89S365.2,146.63,533.77,146.63,839,265.37,839,411.84Z"/><path class="cls-2" d="M466.58,234C417,245.61,425.09,320.6,363.47,321.7c-75.13,6.61-74.44,282.87-102.2,123.44C236.14,300.84,365,179.94,493,179.94,597.82,179.94,609.22,200.74,466.58,234Z"/><g id="Left_Eye" data-name="Left Eye"><path class="cls-3" d="M727.62,333.8c0,31.13-23.82,35.05-67.84,35.05-43.79,0-61.94-3.92-61.94-35.05s29-56.38,64.89-56.38S727.62,302.66,727.62,333.8Z"/><path class="cls-2" d="M720.07,324.43c.45,17.09-12.57,19.58-36.73,20.21s-34-1.25-34.49-18.34,15.13-31.36,34.8-31.87S719.62,307.34,720.07,324.43Z"/></g><g id="Right_Eye" data-name="Right Eye"><path class="cls-3" d="M615.83,344.21c0,31.14-23.83,35.05-67.84,35.05-43.79,0-61.94-3.91-61.94-35.05s29.05-56.38,64.89-56.38S615.83,313.07,615.83,344.21Z"/><path class="cls-2" d="M608.27,334.85c.45,17.08-12.56,19.57-36.72,20.21s-34-1.26-34.49-18.35,15.13-31.35,34.79-31.87S607.83,317.76,608.27,334.85Z"/></g><g id="Mouth"><ellipse class="cls-4" cx="620.71" cy="452.28" rx="40.25" ry="21.23"/><path class="cls-2" d="M659.78,457.4c-4,8.27-16.84,16.11-39.07,16.11-19.71,0-33.6-7.51-37.51-13.52,6.58-7.51,30.8-6.16,37-6.66C623.72,453.5,652.83,451.39,659.78,457.4Z"/></g></svg>